<svg width="54" height="54" viewBox="0 0 54 54" fill="none" xmlns="http://www.w3.org/2000/svg">
<g filter="url(#filter0_d_20_1082)">
<rect x="3" y="2" width="48" height="48" rx="6" fill="white" shape-rendering="crispEdges"/>
<path d="M34.6401 22.78L27.9001 17.78C27.6405 17.5852 27.3247 17.48 27.0001 17.48C26.6756 17.48 26.3598 17.5852 26.1001 17.78L19.3601 22.78C19.0533 23.0003 18.8028 23.2899 18.6291 23.6253C18.4553 23.9606 18.3632 24.3323 18.3601 24.71V26.43H35.6101V24.71C35.6105 24.3349 35.523 23.9649 35.3545 23.6297C35.1861 23.2945 34.9414 23.0035 34.6401 22.78Z" stroke="#1C5381" stroke-width="2" stroke-linecap="round" stroke-linejoin="round"/>
<path d="M21.5799 26.4399H18.3899V34.4899H21.5799V26.4399Z" stroke="#1C5381" stroke-width="2" stroke-linecap="round" stroke-linejoin="round"/>
<path d="M28.5999 26.4399H25.4099V34.4899H28.5999V26.4399Z" stroke="#1C5381" stroke-width="2" stroke-linecap="round" stroke-linejoin="round"/>
<path d="M35.6099 26.4399H32.4199V34.4899H35.6099V26.4399Z" stroke="#1C5381" stroke-width="2" stroke-linecap="round" stroke-linejoin="round"/>
<path d="M16.5 34.4902H37.5" stroke="#1C5381" stroke-width="2" stroke-linecap="round" stroke-linejoin="round"/>
<path d="M16.5 26.4399H37.5" stroke="#1C5381" stroke-width="2" stroke-linecap="round" stroke-linejoin="round"/>
<path d="M26.9999 23.9798C27.8725 23.9798 28.5799 23.2724 28.5799 22.3998C28.5799 21.5272 27.8725 20.8198 26.9999 20.8198C26.1273 20.8198 25.4199 21.5272 25.4199 22.3998C25.4199 23.2724 26.1273 23.9798 26.9999 23.9798Z" stroke="#1C5381" stroke-width="2" stroke-linecap="round" stroke-linejoin="round"/>
</g>
<defs>
<filter id="filter0_d_20_1082" x="0" y="0" width="54" height="54" filterUnits="userSpaceOnUse" color-interpolation-filters="sRGB">
<feFlood flood-opacity="0" result="BackgroundImageFix"/>
<feColorMatrix in="SourceAlpha" type="matrix" values="0 0 0 0 0 0 0 0 0 0 0 0 0 0 0 0 0 0 127 0" result="hardAlpha"/>
<feOffset dy="1"/>
<feGaussianBlur stdDeviation="1.5"/>
<feComposite in2="hardAlpha" operator="out"/>
<feColorMatrix type="matrix" values="0 0 0 0 0 0 0 0 0 0 0 0 0 0 0 0 0 0 0.1 0"/>
<feBlend mode="normal" in2="BackgroundImageFix" result="effect1_dropShadow_20_1082"/>
<feBlend mode="normal" in="SourceGraphic" in2="effect1_dropShadow_20_1082" result="shape"/>
</filter>
</defs>
</svg>
